# xmcd
#
# Track frame offsets: 
#        150
#        25489
#        47562
#        71558
#        97257
#        112765
#        133241
#        154156
#        183423
#        205928
#        226664
#        243319
#        265648
#
# Disc length: 3768 seconds
#
# Revision: 2
# Processed by: cddbd v1.5.2PL0 Copyright (c) Steve Scherf et al.
# Submitted via: ExactAudioCopyFreeDBPlugin 1.0
#
DISCID=ae0eb60d
DTITLE=齐旦布 - DTSES天上西藏1
DYEAR=2008
DGENRE=DTSES
TTITLE0=天上西藏
TTITLE1=父亲的草原母亲的河
TTITLE2=阿妈拉
TTITLE3=故乡的牧羊人
TTITLE4=月光落地的声音
TTITLE5=青藏人
TTITLE6=冰雪天堂
TTITLE7=梦回西藏
TTITLE8=高原情
TTITLE9=天空
TTITLE10=美丽姑娘卓玛拉
TTITLE11=天路
TTITLE12=献给阿妈的歌
EXTD=
EXTT0=
EXTT1=
EXTT2=
EXTT3=
EXTT4=
EXTT5=
EXTT6=
EXTT7=
EXTT8=
EXTT9=
EXTT10=
EXTT11=
EXTT12=
PLAYORDER=
